<svg width="33" height="33" viewBox="0 0 33 33" fill="none" xmlns="http://www.w3.org/2000/svg">
<path d="M32.1714 18.7923L30.4928 13.2152C30.484 13.1638 30.4703 13.1136 30.4522 13.0652L27.0856 1.85517C26.9973 1.56699 26.8261 1.31619 26.5965 1.13883C26.3669 0.961464 26.0907 0.866655 25.8076 0.868024C25.5253 0.867119 25.2501 0.963385 25.0227 1.14264C24.7953 1.3219 24.6276 1.57468 24.5443 1.86374L21.3351 12.5459H11.202L7.99006 1.86302C7.90719 1.57495 7.74043 1.32287 7.51418 1.1437C7.28794 0.964525 7.01409 0.867668 6.73275 0.86731H6.72542C6.44161 0.868344 6.16539 0.965669 5.9364 1.14532C5.70741 1.32497 5.53741 1.57772 5.45079 1.86731L2.08087 13.0873C2.08087 13.0973 2.07354 13.1059 2.07021 13.1159L0.361582 18.793C0.235749 19.2088 0.235257 19.6565 0.360175 20.0727C0.485092 20.4888 0.729083 20.8523 1.05756 21.1116L15.8199 32.7123C15.9494 32.8139 16.106 32.8682 16.2666 32.8673C16.4272 32.8664 16.5832 32.8103 16.7118 32.7073L31.4768 21.1116C31.8053 20.8522 32.0493 20.4886 32.174 20.0722C32.2987 19.6559 32.2978 19.2081 32.1714 18.7923ZM10.1053 14.1844L14.2206 27.8816L4.34281 14.1844H10.1053ZM18.3185 27.8844L22.2644 14.753L22.4344 14.1816H28.2022L19.2651 26.5666L18.3185 27.8844ZM25.8203 2.91445L28.7115 12.5452H22.9237L25.8203 2.91445ZM20.8444 14.178L17.9778 23.7194L16.2672 29.4023L11.6966 14.178H20.8444ZM6.71875 2.91445L9.61601 12.5452H3.83416L6.71875 2.91445ZM1.94621 19.7909C1.87644 19.7357 1.82466 19.6584 1.79821 19.5699C1.77177 19.4815 1.772 19.3863 1.79888 19.298L3.06551 15.0837L12.3726 27.983L1.94621 19.7909ZM30.5895 19.7909L20.1617 27.9794L20.1964 27.9301L29.4668 15.0809L30.7335 19.2951C30.7607 19.3835 30.7613 19.4788 30.735 19.5676C30.7088 19.6563 30.6572 19.7339 30.5875 19.7894" fill="black"/>
</svg>
